<svg id="visual" viewBox="0 0 900 600" width="900" height="600" xmlns="http://www.w3.org/2000/svg" xmlns:xlink="http://www.w3.org/1999/xlink" version="1.1"><rect x="0" y="0" width="900" height="600" fill="#ffffff"></rect><defs><linearGradient id="grad1_0" x1="33.3%" y1="0%" x2="100%" y2="100%"><stop offset="20%" stop-color="#ce417d" stop-opacity="1"></stop><stop offset="80%" stop-color="#ce417d" stop-opacity="1"></stop></linearGradient></defs><defs><linearGradient id="grad1_1" x1="33.3%" y1="0%" x2="100%" y2="100%"><stop offset="20%" stop-color="#ce417d" stop-opacity="1"></stop><stop offset="80%" stop-color="#dc6c96" stop-opacity="1"></stop></linearGradient></defs><defs><linearGradient id="grad1_2" x1="33.3%" y1="0%" x2="100%" y2="100%"><stop offset="20%" stop-color="#e892af" stop-opacity="1"></stop><stop offset="80%" stop-color="#dc6c96" stop-opacity="1"></stop></linearGradient></defs><defs><linearGradient id="grad1_3" x1="33.3%" y1="0%" x2="100%" y2="100%"><stop offset="20%" stop-color="#e892af" stop-opacity="1"></stop><stop offset="80%" stop-color="#f1b7c9" stop-opacity="1"></stop></linearGradient></defs><defs><linearGradient id="grad1_4" x1="33.3%" y1="0%" x2="100%" y2="100%"><stop offset="20%" stop-color="#f9dbe4" stop-opacity="1"></stop><stop offset="80%" stop-color="#f1b7c9" stop-opacity="1"></stop></linearGradient></defs><defs><linearGradient id="grad1_5" x1="33.3%" y1="0%" x2="100%" y2="100%"><stop offset="20%" stop-color="#f9dbe4" stop-opacity="1"></stop><stop offset="80%" stop-color="#ffffff" stop-opacity="1"></stop></linearGradient></defs><defs><linearGradient id="grad2_0" x1="0%" y1="0%" x2="66.7%" y2="100%"><stop offset="20%" stop-color="#ce417d" stop-opacity="1"></stop><stop offset="80%" stop-color="#ce417d" stop-opacity="1"></stop></linearGradient></defs><defs><linearGradient id="grad2_1" x1="0%" y1="0%" x2="66.7%" y2="100%"><stop offset="20%" stop-color="#dc6c96" stop-opacity="1"></stop><stop offset="80%" stop-color="#ce417d" stop-opacity="1"></stop></linearGradient></defs><defs><linearGradient id="grad2_2" x1="0%" y1="0%" x2="66.7%" y2="100%"><stop offset="20%" stop-color="#dc6c96" stop-opacity="1"></stop><stop offset="80%" stop-color="#e892af" stop-opacity="1"></stop></linearGradient></defs><defs><linearGradient id="grad2_3" x1="0%" y1="0%" x2="66.7%" y2="100%"><stop offset="20%" stop-color="#f1b7c9" stop-opacity="1"></stop><stop offset="80%" stop-color="#e892af" stop-opacity="1"></stop></linearGradient></defs><defs><linearGradient id="grad2_4" x1="0%" y1="0%" x2="66.7%" y2="100%"><stop offset="20%" stop-color="#f1b7c9" stop-opacity="1"></stop><stop offset="80%" stop-color="#f9dbe4" stop-opacity="1"></stop></linearGradient></defs><defs><linearGradient id="grad2_5" x1="0%" y1="0%" x2="66.7%" y2="100%"><stop offset="20%" stop-color="#ffffff" stop-opacity="1"></stop><stop offset="80%" stop-color="#f9dbe4" stop-opacity="1"></stop></linearGradient></defs><g transform="translate(900, 0)"><path d="M0 432.7C-21.2 433.7 -42.3 434.8 -61.6 428.3C-80.8 421.7 -98.2 407.5 -117.8 401.1C-137.4 394.6 -159.3 395.8 -177.4 388.4C-195.5 381 -209.9 364.9 -227.6 354.2C-245.4 343.5 -266.5 338.2 -282.2 325.7C-298 313.3 -308.4 293.7 -317.4 275C-326.5 256.4 -334.2 238.8 -348.3 223.8C-362.4 208.8 -383 196.4 -390.2 178.2C-397.5 160 -391.5 136.1 -394.4 115.8C-397.2 95.4 -408.9 78.6 -416.7 59.9C-424.6 41.2 -428.6 20.6 -432.7 0L0 0Z" fill="#fcedf1"></path><path d="M0 360.6C-17.6 361.4 -35.3 362.3 -51.3 356.9C-67.4 351.4 -81.8 339.6 -98.1 334.2C-114.5 328.8 -132.7 329.9 -147.8 323.7C-162.9 317.5 -174.9 304.1 -189.7 295.1C-204.5 286.2 -222.1 281.8 -235.2 271.4C-248.3 261.1 -257 244.7 -264.5 229.2C-272 213.7 -278.5 199 -290.2 186.5C-302 174 -319.1 163.6 -325.2 148.5C-331.3 133.4 -326.3 113.5 -328.6 96.5C-331 79.5 -340.7 65.5 -347.3 49.9C-353.8 34.3 -357.2 17.2 -360.6 0L0 0Z" fill="#f6c9d6"></path><path d="M0 288.4C-14.1 289.2 -28.2 289.9 -41 285.5C-53.9 281.1 -65.4 271.7 -78.5 267.4C-91.6 263.1 -106.2 263.9 -118.3 258.9C-130.3 254 -139.9 243.2 -151.7 236.1C-163.6 229 -177.7 225.5 -188.2 217.2C-198.7 208.8 -205.6 195.8 -211.6 183.4C-217.6 171 -222.8 159.2 -232.2 149.2C-241.6 139.2 -255.3 130.9 -260.2 118.8C-265 106.7 -261 90.8 -262.9 77.2C-264.8 63.6 -272.6 52.4 -277.8 39.9C-283 27.5 -285.7 13.7 -288.4 0L0 0Z" fill="#eda4bc"></path><path d="M0 216.3C-10.6 216.9 -21.2 217.4 -30.8 214.1C-40.4 210.9 -49.1 203.8 -58.9 200.5C-68.7 197.3 -79.6 197.9 -88.7 194.2C-97.8 190.5 -104.9 182.4 -113.8 177.1C-122.7 171.7 -133.2 169.1 -141.1 162.9C-149 156.6 -154.2 146.8 -158.7 137.5C-163.2 128.2 -167.1 119.4 -174.1 111.9C-181.2 104.4 -191.5 98.2 -195.1 89.1C-198.8 80 -195.8 68.1 -197.2 57.9C-198.6 47.7 -204.4 39.3 -208.4 30C-212.3 20.6 -214.3 10.3 -216.3 0L0 0Z" fill="#e27fa2"></path><path d="M0 144.2C-7.1 144.6 -14.1 144.9 -20.5 142.8C-26.9 140.6 -32.7 135.8 -39.3 133.7C-45.8 131.5 -53.1 131.9 -59.1 129.5C-65.2 127 -70 121.6 -75.9 118.1C-81.8 114.5 -88.8 112.7 -94.1 108.6C-99.3 104.4 -102.8 97.9 -105.8 91.7C-108.8 85.5 -111.4 79.6 -116.1 74.6C-120.8 69.6 -127.7 65.5 -130.1 59.4C-132.5 53.3 -130.5 45.4 -131.5 38.6C-132.4 31.8 -136.3 26.2 -138.9 20C-141.5 13.7 -142.9 6.9 -144.2 0L0 0Z" fill="#d55889"></path><path d="M0 72.1C-3.5 72.3 -7.1 72.5 -10.3 71.4C-13.5 70.3 -16.4 67.9 -19.6 66.8C-22.9 65.8 -26.5 66 -29.6 64.7C-32.6 63.5 -35 60.8 -37.9 59C-40.9 57.2 -44.4 56.4 -47 54.3C-49.7 52.2 -51.4 48.9 -52.9 45.8C-54.4 42.7 -55.7 39.8 -58 37.3C-60.4 34.8 -63.8 32.7 -65 29.7C-66.3 26.7 -65.3 22.7 -65.7 19.3C-66.2 15.9 -68.1 13.1 -69.5 10C-70.8 6.9 -71.4 3.4 -72.1 0L0 0Z" fill="#ce417d"></path></g><g transform="translate(0, 600)"><path d="M0 -432.7C20.8 -431.8 41.7 -430.9 61.1 -424.6C80.4 -418.4 98.3 -406.7 117.5 -400.1C136.6 -393.5 157 -391.8 176.1 -385.7C195.2 -379.6 213 -369 229.8 -357.5C246.5 -346.1 262.3 -333.9 279 -321.9C295.6 -310 313.3 -298.5 327 -283.3C340.7 -268.2 350.6 -249.5 359.2 -230.9C367.8 -212.2 375.2 -193.5 383 -174.9C390.7 -156.3 398.7 -137.9 404.9 -118.9C411.1 -99.9 415.4 -80.3 419.7 -60.3C424 -40.4 428.3 -20.2 432.7 0L0 0Z" fill="#fcedf1"></path><path d="M0 -360.6C17.4 -359.8 34.7 -359.1 50.9 -353.9C67 -348.6 81.9 -339 97.9 -333.4C113.9 -327.9 130.9 -326.5 146.8 -321.4C162.7 -316.3 177.5 -307.5 191.5 -297.9C205.4 -288.4 218.6 -278.2 232.5 -268.3C246.4 -258.4 261 -248.7 272.5 -236.1C283.9 -223.5 292.2 -208 299.3 -192.4C306.5 -176.8 312.7 -161.2 319.1 -145.7C325.6 -130.3 332.3 -114.9 337.4 -99.1C342.6 -83.2 346.1 -66.9 349.7 -50.3C353.3 -33.7 356.9 -16.8 360.6 0L0 0Z" fill="#f6c9d6"></path><path d="M0 -288.4C13.9 -287.9 27.8 -287.3 40.7 -283.1C53.6 -278.9 65.6 -271.2 78.3 -266.7C91.1 -262.3 104.7 -261.2 117.4 -257.1C130.2 -253 142 -246 153.2 -238.4C164.4 -230.7 174.9 -222.6 186 -214.6C197.1 -206.7 208.8 -199 218 -188.9C227.1 -178.8 233.7 -166.4 239.5 -153.9C245.2 -141.4 250.2 -129 255.3 -116.6C260.5 -104.2 265.8 -91.9 269.9 -79.3C274.1 -66.6 276.9 -53.5 279.8 -40.2C282.7 -27 285.6 -13.5 288.4 0L0 0Z" fill="#eda4bc"></path><path d="M0 -216.3C10.4 -215.9 20.8 -215.4 30.5 -212.3C40.2 -209.2 49.2 -203.4 58.7 -200.1C68.3 -196.7 78.5 -195.9 88.1 -192.8C97.6 -189.8 106.5 -184.5 114.9 -178.8C123.3 -173.1 131.1 -166.9 139.5 -161C147.8 -155 156.6 -149.2 163.5 -141.7C170.4 -134.1 175.3 -124.8 179.6 -115.4C183.9 -106.1 187.6 -96.7 191.5 -87.4C195.3 -78.2 199.4 -69 202.5 -59.4C205.5 -49.9 207.7 -40.1 209.8 -30.2C212 -20.2 214.2 -10.1 216.3 0L0 0Z" fill="#e27fa2"></path><path d="M0 -144.2C6.9 -143.9 13.9 -143.6 20.4 -141.5C26.8 -139.5 32.8 -135.6 39.2 -133.4C45.5 -131.2 52.3 -130.6 58.7 -128.6C65.1 -126.5 71 -123 76.6 -119.2C82.2 -115.4 87.4 -111.3 93 -107.3C98.5 -103.3 104.4 -99.5 109 -94.4C113.6 -89.4 116.9 -83.2 119.7 -77C122.6 -70.7 125.1 -64.5 127.7 -58.3C130.2 -52.1 132.9 -46 135 -39.6C137 -33.3 138.5 -26.8 139.9 -20.1C141.3 -13.5 142.8 -6.7 144.2 0L0 0Z" fill="#d55889"></path><path d="M0 -72.1C3.5 -72 6.9 -71.8 10.2 -70.8C13.4 -69.7 16.4 -67.8 19.6 -66.7C22.8 -65.6 26.2 -65.3 29.4 -64.3C32.5 -63.3 35.5 -61.5 38.3 -59.6C41.1 -57.7 43.7 -55.6 46.5 -53.7C49.3 -51.7 52.2 -49.7 54.5 -47.2C56.8 -44.7 58.4 -41.6 59.9 -38.5C61.3 -35.4 62.5 -32.2 63.8 -29.1C65.1 -26.1 66.5 -23 67.5 -19.8C68.5 -16.6 69.2 -13.4 69.9 -10.1C70.7 -6.7 71.4 -3.4 72.1 0L0 0Z" fill="#ce417d"></path></g></svg>