<svg id="visual" viewBox="0 0 900 600" width="900" height="600" xmlns="http://www.w3.org/2000/svg" xmlns:xlink="http://www.w3.org/1999/xlink" version="1.1"><rect x="0" y="0" width="900" height="600" fill="#ffffff"></rect><defs><linearGradient id="grad1_0" x1="33.3%" y1="100%" x2="100%" y2="0%"><stop offset="20%" stop-color="#ce417d" stop-opacity="1"></stop><stop offset="80%" stop-color="#ce417d" stop-opacity="1"></stop></linearGradient></defs><defs><linearGradient id="grad1_1" x1="33.3%" y1="100%" x2="100%" y2="0%"><stop offset="20%" stop-color="#ce417d" stop-opacity="1"></stop><stop offset="80%" stop-color="#df769c" stop-opacity="1"></stop></linearGradient></defs><defs><linearGradient id="grad1_2" x1="33.3%" y1="100%" x2="100%" y2="0%"><stop offset="20%" stop-color="#eda4bc" stop-opacity="1"></stop><stop offset="80%" stop-color="#df769c" stop-opacity="1"></stop></linearGradient></defs><defs><linearGradient id="grad1_3" x1="33.3%" y1="100%" x2="100%" y2="0%"><stop offset="20%" stop-color="#eda4bc" stop-opacity="1"></stop><stop offset="80%" stop-color="#f8d2dd" stop-opacity="1"></stop></linearGradient></defs><defs><linearGradient id="grad1_4" x1="33.3%" y1="100%" x2="100%" y2="0%"><stop offset="20%" stop-color="#ffffff" stop-opacity="1"></stop><stop offset="80%" stop-color="#f8d2dd" stop-opacity="1"></stop></linearGradient></defs><defs><linearGradient id="grad2_0" x1="0%" y1="100%" x2="66.7%" y2="0%"><stop offset="20%" stop-color="#ce417d" stop-opacity="1"></stop><stop offset="80%" stop-color="#ce417d" stop-opacity="1"></stop></linearGradient></defs><defs><linearGradient id="grad2_1" x1="0%" y1="100%" x2="66.7%" y2="0%"><stop offset="20%" stop-color="#df769c" stop-opacity="1"></stop><stop offset="80%" stop-color="#ce417d" stop-opacity="1"></stop></linearGradient></defs><defs><linearGradient id="grad2_2" x1="0%" y1="100%" x2="66.7%" y2="0%"><stop offset="20%" stop-color="#df769c" stop-opacity="1"></stop><stop offset="80%" stop-color="#eda4bc" stop-opacity="1"></stop></linearGradient></defs><defs><linearGradient id="grad2_3" x1="0%" y1="100%" x2="66.7%" y2="0%"><stop offset="20%" stop-color="#f8d2dd" stop-opacity="1"></stop><stop offset="80%" stop-color="#eda4bc" stop-opacity="1"></stop></linearGradient></defs><defs><linearGradient id="grad2_4" x1="0%" y1="100%" x2="66.7%" y2="0%"><stop offset="20%" stop-color="#f8d2dd" stop-opacity="1"></stop><stop offset="80%" stop-color="#ffffff" stop-opacity="1"></stop></linearGradient></defs><g transform="translate(900, 600)"><path d="M-540.8 0C-509.7 -34.3 -478.6 -68.6 -437.4 -87C-396.2 -105.4 -344.9 -107.9 -358.5 -148.5C-372.1 -189.1 -450.6 -267.9 -449.7 -300.5C-448.8 -333.1 -368.5 -319.5 -318.2 -318.2C-267.9 -316.9 -247.7 -327.8 -223.3 -334.3C-199 -340.7 -170.6 -342.7 -148.5 -358.5C-126.4 -374.2 -110.5 -403.8 -86.8 -436.4C-63.1 -469.1 -31.6 -505 0 -540.8L0 0Z" fill="#fce8ee"></path><path d="M-432.7 0C-407.8 -27.4 -382.9 -54.9 -349.9 -69.6C-317 -84.3 -275.9 -86.3 -286.8 -118.8C-297.6 -151.3 -360.5 -214.3 -359.7 -240.4C-359 -266.5 -294.8 -255.6 -254.6 -254.6C-214.3 -253.5 -198.1 -262.2 -178.7 -267.4C-159.2 -272.6 -136.5 -274.2 -118.8 -286.8C-101.1 -299.4 -88.4 -323 -69.5 -349.2C-50.5 -375.3 -25.2 -404 0 -432.7L0 0Z" fill="#f3bbcc"></path><path d="M-324.5 0C-305.8 -20.6 -287.2 -41.2 -262.5 -52.2C-237.7 -63.2 -206.9 -64.7 -215.1 -89.1C-223.2 -113.5 -270.3 -160.7 -269.8 -180.3C-269.3 -199.8 -221.1 -191.7 -190.9 -190.9C-160.8 -190.1 -148.6 -196.7 -134 -200.6C-119.4 -204.4 -102.4 -205.6 -89.1 -215.1C-75.8 -224.5 -66.3 -242.3 -52.1 -261.9C-37.9 -281.5 -18.9 -303 0 -324.5L0 0Z" fill="#e68dac"></path><path d="M-216.3 0C-203.9 -13.7 -191.5 -27.4 -175 -34.8C-158.5 -42.2 -137.9 -43.1 -143.4 -59.4C-148.8 -75.6 -180.2 -107.1 -179.9 -120.2C-179.5 -133.2 -147.4 -127.8 -127.3 -127.3C-107.2 -126.8 -99.1 -131.1 -89.3 -133.7C-79.6 -136.3 -68.2 -137.1 -59.4 -143.4C-50.5 -149.7 -44.2 -161.5 -34.7 -174.6C-25.2 -187.7 -12.6 -202 0 -216.3L0 0Z" fill="#d75d8c"></path><path d="M-108.2 0C-101.9 -6.9 -95.7 -13.7 -87.5 -17.4C-79.2 -21.1 -69 -21.6 -71.7 -29.7C-74.4 -37.8 -90.1 -53.6 -89.9 -60.1C-89.8 -66.6 -73.7 -63.9 -63.6 -63.6C-53.6 -63.4 -49.5 -65.6 -44.7 -66.9C-39.8 -68.1 -34.1 -68.5 -29.7 -71.7C-25.3 -74.8 -22.1 -80.8 -17.4 -87.3C-12.6 -93.8 -6.3 -101 0 -108.2L0 0Z" fill="#ce417d"></path></g><g transform="translate(0, 0)"><path d="M540.8 0C523.3 32.2 505.7 64.4 491.4 97.7C477.1 131.1 466 165.7 428.7 177.6C391.4 189.4 327.8 178.6 325.9 217.8C324.1 257 384 346.2 382.4 382.4C380.8 418.7 317.7 401.9 279.5 418.2C241.2 434.5 228 483.8 196.3 474C164.7 464.1 114.6 395 78.8 396.2C43 397.5 21.5 469.2 0 540.8L0 0Z" fill="#fce8ee"></path><path d="M432.7 0C418.6 25.7 404.6 51.5 393.1 78.2C381.6 104.9 372.8 132.6 342.9 142.1C313.1 151.5 262.2 142.9 260.7 174.2C259.3 205.6 307.2 276.9 305.9 305.9C304.7 334.9 254.1 321.5 223.6 334.6C193 347.6 182.4 387.1 157.1 379.2C131.7 371.2 91.7 316 63.1 317C34.4 318 17.2 375.3 0 432.7L0 0Z" fill="#f3bbcc"></path><path d="M324.5 0C314 19.3 303.4 38.6 294.8 58.6C286.2 78.7 279.6 99.4 257.2 106.5C234.8 113.7 196.7 107.2 195.6 130.7C194.5 154.2 230.4 207.7 229.5 229.5C228.5 251.2 190.6 241.2 167.7 250.9C144.7 260.7 136.8 290.3 117.8 284.4C98.8 278.4 68.8 237 47.3 237.7C25.8 238.5 12.9 281.5 0 324.5L0 0Z" fill="#e68dac"></path><path d="M216.3 0C209.3 12.9 202.3 25.7 196.5 39.1C190.8 52.4 186.4 66.3 171.5 71C156.5 75.8 131.1 71.4 130.4 87.1C129.6 102.8 153.6 138.5 153 153C152.3 167.5 127.1 160.8 111.8 167.3C96.5 173.8 91.2 193.5 78.5 189.6C65.9 185.6 45.8 158 31.5 158.5C17.2 159 8.6 187.7 0 216.3L0 0Z" fill="#d75d8c"></path><path d="M108.2 0C104.7 6.4 101.1 12.9 98.3 19.5C95.4 26.2 93.2 33.1 85.7 35.5C78.3 37.9 65.6 35.7 65.2 43.6C64.8 51.4 76.8 69.2 76.5 76.5C76.2 83.7 63.5 80.4 55.9 83.6C48.2 86.9 45.6 96.8 39.3 94.8C32.9 92.8 22.9 79 15.8 79.2C8.6 79.5 4.3 93.8 0 108.2L0 0Z" fill="#ce417d"></path></g></svg>